<svg width="200" height="384" viewBox="0 0 200 384" fill="none" xmlns="http://www.w3.org/2000/svg">
<g clip-path="url(#clip0_17_509)">
<path fill-rule="evenodd" clip-rule="evenodd" d="M178.049 22.7234C178.049 10.1737 187.569 0 199.313 0H140.524C152.268 0 161.789 10.1736 161.789 22.7234V110.847C161.789 125.98 154.244 139.967 141.99 147.552L37.1194 212.468C27.228 218.592 21.138 229.881 21.138 242.097V361.276C21.138 373.781 11.6859 383.927 0 384H58.6629C46.9188 384 37.3982 373.827 37.3982 361.276V242.097C37.3982 236.08 40.3978 230.519 45.2698 227.503L150.141 162.588C167.414 151.895 178.049 132.179 178.049 110.847V22.7234Z" fill="white"/>
</g>
<defs>
<clipPath id="clip0_17_509">
<rect width="200" height="384" fill="white"/>
</clipPath>
</defs>
</svg>
