<svg width="177" height="83" viewBox="0 0 177 83" fill="none" xmlns="http://www.w3.org/2000/svg">
<g clip-path="url(#clip0_14_413)">
<path d="M105 37.8452V53.1503H99.374V29.6637C101.58 29.6637 103.794 29.6489 106.008 29.69C106.199 29.6932 106.454 30.0339 106.561 30.2713C108.162 33.7971 109.742 37.3319 111.33 40.8629C111.404 41.0278 111.515 41.1766 111.642 41.3858C113.143 37.9639 114.653 34.6037 116.09 31.2126C116.737 29.6881 116.671 29.6605 118.3 29.6605C120.138 29.6605 121.976 29.6605 123.869 29.6605V53.124H117.854V37.8369C117.795 37.8247 117.737 37.8125 117.678 37.8009C116.289 41.0849 114.9 44.3701 113.504 47.6719H109.342C107.96 44.4041 106.57 41.1157 105.179 37.8273C105.119 37.833 105.059 37.8388 105 37.8446V37.8452Z" fill="#2B2A29"/>
<path d="M137.695 53.1528H131.604V29.7278H137.654V39.3274C139.041 39.3633 140.052 38.8815 140.723 37.7836C141.759 36.091 142.761 34.3784 143.78 32.6755C145.036 30.5774 146.939 29.6592 149.345 29.6605C150.235 29.6611 151.125 29.6605 152.094 29.6605V34.7859C151.629 34.7859 151.131 34.8186 150.639 34.7795C149.174 34.664 148.247 35.3884 147.552 36.5908C146.84 37.8253 146.076 39.0329 145.304 40.2328C145.095 40.5587 144.777 40.816 144.411 41.21C147.365 45.1035 150.377 49.0739 153.45 53.1252C153.177 53.1535 152.949 53.1965 152.722 53.1978C151.004 53.2035 149.279 53.1066 147.571 53.2337C146.434 53.3184 145.774 52.8891 145.167 52.0242C143.313 49.3813 141.444 46.7473 139.492 44.1776C139.191 43.7817 138.42 43.7387 137.695 43.4686V53.1535V53.1528Z" fill="#2B2A29"/>
<path d="M176.744 36.8321C176.276 36.5222 175.792 36.2328 175.344 35.8978C173.7 34.6691 171.956 33.6624 169.827 33.654C166.355 33.6393 164.079 35.826 163.464 39.038C163.013 41.3909 163.114 43.7226 164.177 45.9767C165.379 48.5228 168.838 49.5571 170.988 49.0977C172.932 48.6825 174.479 47.7034 175.978 46.5292C176.223 46.338 176.535 46.2315 176.985 45.9979C176.985 47.9517 177 49.6816 176.965 51.4114C176.96 51.6167 176.724 51.9125 176.522 52.0037C173.841 53.2054 171.06 53.9401 168.082 53.7733C162.723 53.473 158.449 50.7371 157.303 44.9001C156.64 41.5282 156.835 38.279 158.289 35.1465C159.696 32.1154 162.143 30.263 165.339 29.5084C169.14 28.6114 172.85 29.0079 176.382 30.775C176.845 31.0073 177.01 31.2447 176.999 31.7548C176.964 33.3647 176.985 34.9752 176.985 36.585C176.905 36.6665 176.824 36.7487 176.744 36.8308V36.8321Z" fill="#2B2A29"/>
<path fill-rule="evenodd" clip-rule="evenodd" d="M34.9774 0.602365C21.1513 3.06755 10.9494 10.5792 4.51176 22.9391C0.196572 31.2227 -0.988509 40.0857 0.807498 49.2759C3.04025 60.7003 9.08887 69.6538 18.7527 76.1574C23.6659 79.4638 29.0875 81.5671 34.98 82.4782C37.9798 82.9415 40.9712 83.0884 43.9723 82.9473C43.9729 82.9473 43.9736 82.9473 43.9736 82.9473C44.5574 82.9319 45.158 82.8863 45.7122 82.8318C46.1496 82.7952 46.5889 82.7535 47.0269 82.7047C47.1811 82.6867 47.3095 82.6598 47.4192 82.6207C47.7856 82.5668 48.0094 82.5276 48.0094 82.5276V75.4683C48.0198 75.3175 48.023 75.1642 48.0094 75.0031C34.6768 78.3332 14.7485 70.9922 8.75921 51.4357C2.86736 32.1961 14.673 12.4952 34.0994 8.09865C54.1503 3.55968 72.9535 17.1714 75.7282 36.6767C77.1423 46.6214 74.5399 55.5704 68.2016 63.3881C65.7521 66.4103 62.82 68.9178 59.2893 70.9229C59.2674 70.4468 59.2467 70.1966 59.2467 69.9457C59.2403 63.9663 59.2345 57.9874 59.2332 52.0074C59.2325 48.1152 59.2377 44.2223 59.2345 40.3289L59.2351 40.3308L59.2938 32.6812L57.383 31.6186C57.054 31.4255 56.7237 31.2349 56.3921 31.045L41.6692 22.4509L36.3115 25.668C36.3115 23.7059 36.3083 21.9363 36.3128 20.1666C36.3167 18.4797 36.3141 18.4393 37.9366 18.1782C43.1207 17.3466 48.0688 18.1377 52.704 20.5676C58.4726 23.5917 62.3588 28.2635 64.3535 34.4213C65.9044 39.2124 65.9379 44.0395 64.2516 48.8389C63.8813 49.8925 63.4194 50.9839 63.3819 52.0715C63.2652 55.5165 63.3271 58.9666 63.3252 62.4148C63.3252 62.7471 63.3671 63.0795 63.4058 63.6358C63.78 63.2232 63.9916 62.9724 64.2212 62.7388C67.8262 59.0808 70.2253 54.7202 71.6143 49.8264C72.7645 45.7706 73.0219 41.625 72.4458 37.4287C71.6801 31.8464 69.6131 26.8114 66.0643 22.422C60.9202 16.0601 54.3142 12.2045 46.1444 11.0014C43.1872 10.5664 40.2958 10.5728 37.4527 10.9713C37.436 10.9726 37.4205 10.9732 37.4031 10.9738C33.5749 11.2728 29.0501 13.244 29.0501 13.244V14.0216C29.043 14.1063 29.0391 14.1955 29.0398 14.2924C29.0701 18.4477 29.0578 22.6036 29.0649 26.7588L29.0636 26.7563V29.3068C29.0269 29.763 28.843 30.0562 28.3914 30.2994C27.5205 30.7684 26.6928 31.3254 25.8251 31.797L25.4542 31.9914C25.3413 32.0485 25.2271 32.105 25.1116 32.1582C24.982 32.2179 24.871 32.2814 24.773 32.3488L24.1595 32.6703L24.1743 33.6006C24.1724 33.6609 24.1711 33.7219 24.1717 33.7861C24.1982 41.2201 24.1962 48.6542 24.1975 56.0882C24.1975 56.4405 24.1485 56.7934 24.1046 57.4048C23.6685 56.9178 23.4111 56.6522 23.1789 56.3667C20.1642 52.6503 18.4063 48.3988 18.0302 43.6539C17.8147 40.9288 18.005 38.3366 18.6005 35.8778C19.4901 32.2031 21.2855 28.83 23.973 25.7656L25.1581 24.5933V15.5012C25.1581 15.5012 24.3207 16.0999 24.1601 16.2006C16.1994 21.2638 8.73663 32.712 11.152 46.8653C12.3751 54.0317 15.8684 60.0176 21.3332 64.8209C24.2433 67.3779 27.5354 69.347 31.4067 70.6245C31.4067 70.022 31.4073 69.5864 31.4067 69.1501C31.4035 58.7099 31.4022 48.2705 31.3899 37.8297C31.3886 37.2612 31.459 36.8319 32.0376 36.5047C35.0684 34.7902 38.0656 33.0167 41.1015 31.3138C41.4138 31.1393 41.9976 31.1412 42.3105 31.317C45.2367 32.9571 48.1333 34.6523 51.0357 36.3359C51.6692 36.7036 51.9705 37.2368 51.9653 37.9907C51.9466 40.8351 51.9634 43.6795 51.9634 46.5239C51.964 57.7237 51.9634 68.9229 51.9634 80.1221C51.9634 80.6181 51.9634 81.1134 51.9634 81.7955C52.7969 81.5549 53.4846 81.3618 54.1677 81.1564C58.8145 79.7525 63.0878 77.5555 66.9307 74.6553C71.1111 71.5017 74.6276 67.6473 77.3216 63.1559C82.6284 54.3096 84.3747 44.7369 82.758 34.5779C81.5278 26.8429 78.2093 20.0229 73.0368 14.1698C67.8236 8.27125 61.4021 4.11984 53.8007 1.82661C49.8319 0.629956 45.8231 -0.00205994 41.7808 -0.00205994C39.5229 -0.00205994 37.2553 0.194924 34.9768 0.60044L34.9774 0.602365Z" fill="white"/>
<path d="M41.0281 43.4602H38.1006V46.4477H41.0281V43.4602Z" fill="#2B2A29"/>
<path d="M42.4316 46.4342H45.4205V43.4775H42.4316V46.4342Z" fill="#2B2A29"/>
<path d="M41.0291 39.1497H38.0996V42.1314H41.0291V39.1497Z" fill="#2B2A29"/>
<path d="M42.4609 42.1314H45.3898V39.1503H42.4609V42.1314Z" fill="#2B2A29"/>
</g>
<defs>
<clipPath id="clip0_14_413">
<rect width="177" height="83" fill="white"/>
</clipPath>
</defs>
</svg>
