<svg width="60" height="60" viewBox="0 0 60 60" fill="none" xmlns="http://www.w3.org/2000/svg">
<g clip-path="url(#clip0_17_583)">
<path d="M30 60C46.5685 60 60 46.5685 60 30C60 13.4315 46.5685 0 30 0C13.4315 0 0 13.4315 0 30C0 46.5685 13.4315 60 30 60Z" fill="#EC691F"/>
<path d="M21.6996 15.85C20.1481 15.85 18.6601 16.4663 17.563 17.5634C16.4659 18.6605 15.8496 20.1485 15.8496 21.7V37.3C15.8496 38.8515 16.4659 40.3395 17.563 41.4366C18.6601 42.5336 20.1481 43.15 21.6996 43.15H28.7196C28.4011 42.5265 28.1445 41.8734 27.9533 41.2H21.6996C20.6653 41.2 19.6733 40.7891 18.9419 40.0577C18.2105 39.3263 17.7996 38.3343 17.7996 37.3V21.7C17.7996 20.6656 18.2105 19.6737 18.9419 18.9423C19.6733 18.2109 20.6653 17.8 21.6996 17.8H37.2996C38.334 17.8 39.3259 18.2109 40.0573 18.9423C40.7887 19.6737 41.1996 20.6656 41.1996 21.7V27.9536C41.8808 28.1473 42.5308 28.4028 43.1496 28.72V21.7C43.1496 20.1485 42.5333 18.6605 41.4362 17.5634C40.3391 16.4663 38.8511 15.85 37.2996 15.85H21.6996ZM28.5246 29.5H32.1068C33.852 28.2715 35.9795 27.55 38.2746 27.55H28.5246C28.266 27.55 28.018 27.6527 27.8352 27.8355C27.6523 28.0184 27.5496 28.2664 27.5496 28.525C27.5496 28.7836 27.6523 29.0316 27.8352 29.2144C28.018 29.3973 28.266 29.5 28.5246 29.5ZM20.7246 19.75C20.466 19.75 20.218 19.8527 20.0352 20.0355C19.8523 20.2184 19.7496 20.4664 19.7496 20.725C19.7496 20.9836 19.8523 21.2316 20.0352 21.4144C20.218 21.5973 20.466 21.7 20.7246 21.7H38.2746C38.5332 21.7 38.7812 21.5973 38.964 21.4144C39.1469 21.2316 39.2496 20.9836 39.2496 20.725C39.2496 20.4664 39.1469 20.2184 38.964 20.0355C38.7812 19.8527 38.5332 19.75 38.2746 19.75H20.7246ZM22.6746 31.45C23.4504 31.45 24.1944 31.1418 24.7429 30.5933C25.2914 30.0447 25.5996 29.3007 25.5996 28.525C25.5996 27.7492 25.2914 27.0052 24.7429 26.4567C24.1944 25.9081 23.4504 25.6 22.6746 25.6C21.8989 25.6 21.1549 25.9081 20.6063 26.4567C20.0578 27.0052 19.7496 27.7492 19.7496 28.525C19.7496 29.3007 20.0578 30.0447 20.6063 30.5933C21.1549 31.1418 21.8989 31.45 22.6746 31.45ZM22.6746 29.5C22.416 29.5 22.168 29.3973 21.9852 29.2144C21.8023 29.0316 21.6996 28.7836 21.6996 28.525C21.6996 28.2664 21.8023 28.0184 21.9852 27.8355C22.168 27.6527 22.416 27.55 22.6746 27.55C22.9332 27.55 23.1812 27.6527 23.364 27.8355C23.5469 28.0184 23.6496 28.2664 23.6496 28.525C23.6496 28.7836 23.5469 29.0316 23.364 29.2144C23.1812 29.3973 22.9332 29.5 22.6746 29.5ZM22.6746 39.25C23.4504 39.25 24.1944 38.9418 24.7429 38.3933C25.2914 37.8447 25.5996 37.1007 25.5996 36.325C25.5996 35.5492 25.2914 34.8052 24.7429 34.2567C24.1944 33.7081 23.4504 33.4 22.6746 33.4C21.8989 33.4 21.1549 33.7081 20.6063 34.2567C20.0578 34.8052 19.7496 35.5492 19.7496 36.325C19.7496 37.1007 20.0578 37.8447 20.6063 38.3933C21.1549 38.9418 21.8989 39.25 22.6746 39.25ZM22.6746 35.35C22.9332 35.35 23.1812 35.4527 23.364 35.6355C23.5469 35.8184 23.6496 36.0664 23.6496 36.325C23.6496 36.5836 23.5469 36.8316 23.364 37.0144C23.1812 37.1973 22.9332 37.3 22.6746 37.3C22.416 37.3 22.168 37.1973 21.9852 37.0144C21.8023 36.8316 21.6996 36.5836 21.6996 36.325C21.6996 36.0664 21.8023 35.8184 21.9852 35.6355C22.168 35.4527 22.416 35.35 22.6746 35.35ZM47.0496 38.275C47.0496 40.6023 46.1251 42.8342 44.4795 44.4798C42.8338 46.1255 40.6019 47.05 38.2746 47.05C35.9473 47.05 33.7154 46.1255 32.0697 44.4798C30.4241 42.8342 29.4996 40.6023 29.4996 38.275C29.4996 35.9477 30.4241 33.7157 32.0697 32.0701C33.7154 30.4245 35.9473 29.5 38.2746 29.5C40.6019 29.5 42.8338 30.4245 44.4795 32.0701C46.1251 33.7157 47.0496 35.9477 47.0496 38.275ZM39.2496 34.375C39.2496 34.1164 39.1469 33.8684 38.964 33.6855C38.7812 33.5027 38.5332 33.4 38.2746 33.4C38.016 33.4 37.768 33.5027 37.5852 33.6855C37.4023 33.8684 37.2996 34.1164 37.2996 34.375V37.3H34.3746C34.116 37.3 33.868 37.4027 33.6852 37.5855C33.5023 37.7684 33.3996 38.0164 33.3996 38.275C33.3996 38.5336 33.5023 38.7816 33.6852 38.9644C33.868 39.1473 34.116 39.25 34.3746 39.25H37.2996V42.175C37.2996 42.4336 37.4023 42.6816 37.5852 42.8644C37.768 43.0473 38.016 43.15 38.2746 43.15C38.5332 43.15 38.7812 43.0473 38.964 42.8644C39.1469 42.6816 39.2496 42.4336 39.2496 42.175V39.25H42.1746C42.4332 39.25 42.6812 39.1473 42.864 38.9644C43.0469 38.7816 43.1496 38.5336 43.1496 38.275C43.1496 38.0164 43.0469 37.7684 42.864 37.5855C42.6812 37.4027 42.4332 37.3 42.1746 37.3H39.2496V34.375Z" fill="white"/>
</g>
<defs>
<clipPath id="clip0_17_583">
<rect width="60" height="60" fill="white"/>
</clipPath>
</defs>
</svg>
