<svg width="60" height="60" viewBox="0 0 60 60" fill="none" xmlns="http://www.w3.org/2000/svg">
<g clip-path="url(#clip0_17_595)">
<path d="M30 60C46.5685 60 60 46.5685 60 30C60 13.4315 46.5685 0 30 0C13.4315 0 0 13.4315 0 30C0 46.5685 13.4315 60 30 60Z" fill="#EC691F"/>
<g clip-path="url(#clip1_17_595)">
<path d="M32.175 16.3162C32.1084 16.316 32.0421 16.3266 31.9788 16.3474C31.8521 16.3903 31.7426 16.4727 31.6663 16.5824L24.4938 26.9524C24.4368 27.0355 24.4008 27.1311 24.3888 27.2312C24.3781 27.3313 24.3919 27.4325 24.4288 27.5262C24.4668 27.6195 24.5268 27.7023 24.6038 27.7674C24.6814 27.8323 24.7736 27.8773 24.8725 27.8987L29.5063 28.8812L29.2188 34.6062C29.2133 34.7393 29.2505 34.8707 29.325 34.9812C29.4012 35.0914 29.5107 35.1742 29.6375 35.2174C29.7646 35.2593 29.9017 35.2593 30.0288 35.2174C30.1552 35.1748 30.2647 35.0929 30.3413 34.9837L37.5138 24.6137C37.5707 24.5306 37.6067 24.4349 37.6188 24.3349C37.6294 24.2348 37.6157 24.1336 37.5788 24.0399C37.5409 23.9461 37.4809 23.8629 37.4038 23.7974C37.326 23.733 37.2338 23.6884 37.135 23.6674L32.5013 22.6837L32.7888 16.9587C32.7942 16.8255 32.757 16.6941 32.6825 16.5837C32.6062 16.4739 32.4966 16.3916 32.37 16.3487C32.3072 16.3276 32.2413 16.3166 32.175 16.3162ZM16.4463 27.2349C16.0625 27.2362 15.6963 27.3899 15.425 27.6599C15.154 27.9308 15.0012 28.298 15 28.6812C14.9982 29.0646 15.1483 29.4331 15.4175 29.7062L28.97 43.2587C29.1057 43.3927 29.2656 43.4996 29.4413 43.5737C29.618 43.6454 29.8068 43.6827 29.9975 43.6837H30.0025C30.1932 43.6827 30.382 43.6454 30.5588 43.5737C30.7344 43.4996 30.8944 43.3927 31.03 43.2587L44.5825 29.7049C44.8517 29.4319 45.0018 29.0633 45 28.6799C44.9985 28.2971 44.8458 27.9305 44.575 27.6599C44.3041 27.3889 43.937 27.2361 43.5538 27.2349C43.1703 27.2331 42.8018 27.3832 42.5288 27.6524L35.7788 34.4024L35.7463 34.4274L30 40.1749L24.2525 34.4287L24.2225 34.4037L17.4713 27.6524C17.1982 27.3832 16.8297 27.2331 16.4463 27.2349Z" fill="white"/>
</g>
</g>
<defs>
<clipPath id="clip0_17_595">
<rect width="60" height="60" fill="white"/>
</clipPath>
<clipPath id="clip1_17_595">
<rect width="30" height="30" fill="white" transform="translate(15 15)"/>
</clipPath>
</defs>
</svg>
