<svg width="42" height="42" viewBox="0 0 42 42" fill="none" xmlns="http://www.w3.org/2000/svg">
<g clip-path="url(#clip0_17_542)">
<path d="M41.7973 20.681C41.7973 9.28651 32.5603 0.0494385 21.1658 0.0494385C9.77125 0.0494385 0.53418 9.28651 0.53418 20.681C0.53418 32.0755 9.77125 41.3126 21.1658 41.3126C32.5603 41.3126 41.7973 32.0755 41.7973 20.681Z" fill="#EC691F"/>
<path d="M22 14.375C22 13.7451 22.2502 13.141 22.6956 12.6956C23.141 12.2502 23.7451 12 24.375 12H27.625C28.2549 12 28.859 12.2502 29.3044 12.6956C29.7498 13.141 30 13.7451 30 14.375V17.625C30 18.2549 29.7498 18.859 29.3044 19.3044C28.859 19.7498 28.2549 20 27.625 20H24.375C23.7451 20 23.141 19.7498 22.6956 19.3044C22.2502 18.859 22 18.2549 22 17.625V14.375ZM14.5525 12.8985C15.155 11.7005 16.8495 11.7005 17.4525 12.8985L19.824 17.6145C20.3735 18.7065 19.5875 20 18.374 20H13.631C12.418 20 11.632 18.7065 12.181 17.6145L14.5525 12.8985ZM16 22C14.9391 22 13.9217 22.4214 13.1716 23.1716C12.4214 23.9217 12 24.9391 12 26C12 27.0609 12.4214 28.0783 13.1716 28.8284C13.9217 29.5786 14.9391 30 16 30C17.0609 30 18.0783 29.5786 18.8284 28.8284C19.5786 28.0783 20 27.0609 20 26C20 24.9391 19.5786 23.9217 18.8284 23.1716C18.0783 22.4214 17.0609 22 16 22ZM25.5725 21.636C25.7055 21.5592 25.8564 21.5188 26.01 21.5188C26.1636 21.5188 26.3145 21.5592 26.4475 21.636L29.575 23.4415C29.8455 23.598 30.0125 23.8865 30.0125 24.1995V27.8105C30.0125 27.9641 29.9721 28.1151 29.8953 28.2481C29.8185 28.3812 29.7081 28.4917 29.575 28.5685L26.4475 30.374C26.3145 30.4508 26.1636 30.4912 26.01 30.4912C25.8564 30.4912 25.7055 30.4508 25.5725 30.374L22.445 28.5685C22.3119 28.4917 22.2015 28.3812 22.1247 28.2481C22.0479 28.1151 22.0075 27.9641 22.0075 27.8105V24.2C22.0075 23.887 22.1745 23.5985 22.445 23.442L25.5725 21.636Z" fill="white"/>
</g>
<defs>
<clipPath id="clip0_17_542">
<rect width="42" height="42" fill="white"/>
</clipPath>
</defs>
</svg>
