<svg width="42" height="42" viewBox="0 0 42 42" fill="none" xmlns="http://www.w3.org/2000/svg">
<g clip-path="url(#clip0_17_479)">
<path d="M41.7973 20.6811C41.7973 9.28657 32.5603 0.0494995 21.1658 0.0494995C9.77125 0.0494995 0.53418 9.28657 0.53418 20.6811C0.53418 32.0756 9.77125 41.3127 21.1658 41.3127C32.5603 41.3127 41.7973 32.0756 41.7973 20.6811Z" fill="#EC691F"/>
<path d="M31.5 30.45L29.4 28.35C29.775 27.75 30 27 30 26.25C30 24.15 28.35 22.5 26.25 22.5C24.15 22.5 22.5 24.15 22.5 26.25C22.5 28.35 24.15 30 26.25 30C27 30 27.75 29.775 28.35 29.4L30.45 31.5L31.5 30.45ZM24 26.25C24 24.975 24.975 24 26.25 24C27.525 24 28.5 24.975 28.5 26.25C28.5 27.525 27.525 28.5 26.25 28.5C24.975 28.5 24 27.525 24 26.25ZM15 21H22.5V22.5H15V21ZM15 16.5H24V18H15V16.5Z" fill="white"/>
<path d="M19.5 29.775L15.6 27.675C13.35 26.55 12 24.225 12 21.75V12H27V20.25H28.5V12C28.5 11.175 27.825 10.5 27 10.5H12C11.175 10.5 10.5 11.175 10.5 12V21.75C10.5 24.825 12.15 27.6 14.85 29.025L19.5 31.5V29.775Z" fill="white"/>
</g>
<defs>
<clipPath id="clip0_17_479">
<rect width="42" height="42" fill="white"/>
</clipPath>
</defs>
</svg>
