<svg width="60" height="60" viewBox="0 0 60 60" fill="none" xmlns="http://www.w3.org/2000/svg">
<g clip-path="url(#clip0_17_601)">
<path d="M30 60C46.5685 60 60 46.5685 60 30C60 13.4315 46.5685 0 30 0C13.4315 0 0 13.4315 0 30C0 46.5685 13.4315 60 30 60Z" fill="#EC691F"/>
<path d="M42.75 29.7675L40.005 26.64L40.3875 22.5L36.3263 21.5775L34.2 18L30.375 19.6425L26.55 18L24.4237 21.5775L20.3625 22.4888L20.745 26.6287L18 29.7675L20.745 32.895L20.3625 37.0462L24.4237 37.9688L26.55 41.5462L30.375 39.8925L34.2 41.535L36.3263 37.9575L40.3875 37.035L40.005 32.895L42.75 29.7675ZM28.125 35.3925L23.625 30.8925L25.2112 29.3063L28.125 32.2087L35.5387 24.795L37.125 26.3925L28.125 35.3925Z" fill="white"/>
</g>
<defs>
<clipPath id="clip0_17_601">
<rect width="60" height="60" fill="white"/>
</clipPath>
</defs>
</svg>
