<svg width="42" height="42" viewBox="0 0 42 42" fill="none" xmlns="http://www.w3.org/2000/svg">
<g clip-path="url(#clip0_17_484)">
<path d="M41.7973 20.6811C41.7973 9.28657 32.5603 0.0494995 21.1658 0.0494995C9.77125 0.0494995 0.53418 9.28657 0.53418 20.6811C0.53418 32.0756 9.77125 41.3127 21.1658 41.3127C32.5603 41.3127 41.7973 32.0756 41.7973 20.6811Z" fill="#EC691F"/>
<path d="M19.45 23.5C19.85 23.9 20.3667 24.096 21 24.088C21.6333 24.08 22.1 23.8507 22.4 23.4L28 15L19.6 20.6C19.15 20.9 18.9127 21.3583 18.888 21.975C18.8633 22.5917 19.0507 23.1 19.45 23.5ZM21 12C21.9833 12 22.9293 12.1373 23.838 12.412C24.7467 12.6867 25.6007 13.0993 26.4 13.65L24.5 14.85C23.95 14.5667 23.3793 14.3543 22.788 14.213C22.1967 14.0717 21.6007 14.0007 21 14C18.7833 14 16.8957 14.7793 15.337 16.338C13.7783 17.8967 12.9993 19.784 13 22C13 22.7 13.096 23.3917 13.288 24.075C13.48 24.7583 13.7507 25.4 14.1 26H27.9C28.2833 25.3667 28.5627 24.7083 28.738 24.025C28.9133 23.3417 29.0007 22.6333 29 21.9C29 21.3 28.929 20.7167 28.787 20.15C28.645 19.5833 28.4327 19.0333 28.15 18.5L29.35 16.6C29.85 17.3833 30.246 18.2167 30.538 19.1C30.83 19.9833 30.984 20.9 31 21.85C31.016 22.8 30.9077 23.7083 30.675 24.575C30.4423 25.4417 30.1007 26.2667 29.65 27.05C29.4667 27.35 29.2167 27.5833 28.9 27.75C28.5833 27.9167 28.25 28 27.9 28H14.1C13.75 28 13.4167 27.9167 13.1 27.75C12.7833 27.5833 12.5333 27.35 12.35 27.05C11.9167 26.3 11.5833 25.5043 11.35 24.663C11.1167 23.8217 11 22.934 11 22C11 20.6167 11.2627 19.321 11.788 18.113C12.3133 16.905 13.03 15.8467 13.938 14.938C14.846 14.0293 15.9083 13.3127 17.125 12.788C18.3417 12.2633 19.6333 12.0007 21 12Z" fill="white"/>
</g>
<defs>
<clipPath id="clip0_17_484">
<rect width="42" height="42" fill="white"/>
</clipPath>
</defs>
</svg>
