<svg width="42" height="42" viewBox="0 0 42 42" fill="none" xmlns="http://www.w3.org/2000/svg">
<g clip-path="url(#clip0_17_489)">
<path d="M41.7973 20.681C41.7973 9.28651 32.5603 0.0494385 21.1658 0.0494385C9.77125 0.0494385 0.53418 9.28651 0.53418 20.681C0.53418 32.0755 9.77125 41.3126 21.1658 41.3126C32.5603 41.3126 41.7973 32.0755 41.7973 20.681Z" fill="#EC691F"/>
<path d="M21 20.925L19.3 22.225C19.2 22.3083 19.1 22.3127 19 22.238C18.9 22.1633 18.8667 22.0673 18.9 21.95L19.55 19.85L17.8 18.45C17.7167 18.3667 17.6917 18.271 17.725 18.163C17.7583 18.055 17.8333 18.0007 17.95 18H20.1L20.75 15.95C20.7833 15.8333 20.8667 15.775 21 15.775C21.1333 15.775 21.2167 15.8333 21.25 15.95L21.9 18H24.025C24.1417 18 24.221 18.0543 24.263 18.163C24.305 18.2717 24.284 18.3673 24.2 18.45L22.425 19.85L23.075 21.95C23.1083 22.0667 23.075 22.1627 22.975 22.238C22.875 22.3133 22.775 22.309 22.675 22.225L21 20.925ZM21 30L16.325 31.55C15.9917 31.6667 15.6873 31.625 15.412 31.425C15.1367 31.225 14.9993 30.9583 15 30.625V24.275C14.3667 23.575 13.875 22.775 13.525 21.875C13.175 20.975 13 20.0167 13 19C13 16.7667 13.775 14.875 15.325 13.325C16.875 11.775 18.7667 11 21 11C23.2333 11 25.125 11.775 26.675 13.325C28.225 14.875 29 16.7667 29 19C29 20.0167 28.825 20.975 28.475 21.875C28.125 22.775 27.6333 23.575 27 24.275V30.625C27 30.9583 26.8623 31.225 26.587 31.425C26.3117 31.625 26.0077 31.6667 25.675 31.55L21 30ZM21 25C22.6667 25 24.0833 24.4167 25.25 23.25C26.4167 22.0833 27 20.6667 27 19C27 17.3333 26.4167 15.9167 25.25 14.75C24.0833 13.5833 22.6667 13 21 13C19.3333 13 17.9167 13.5833 16.75 14.75C15.5833 15.9167 15 17.3333 15 19C15 20.6667 15.5833 22.0833 16.75 23.25C17.9167 24.4167 19.3333 25 21 25ZM17 29.025L21 28L25 29.025V25.925C24.4167 26.2583 23.7873 26.521 23.112 26.713C22.4367 26.905 21.7327 27.0007 21 27C20.2673 26.9993 19.563 26.9033 18.887 26.712C18.211 26.5207 17.582 26.2587 17 25.926V29.025Z" fill="white"/>
</g>
<defs>
<clipPath id="clip0_17_489">
<rect width="42" height="42" fill="white"/>
</clipPath>
</defs>
</svg>
