<svg width="60" height="60" viewBox="0 0 60 60" fill="none" xmlns="http://www.w3.org/2000/svg">
<g clip-path="url(#clip0_17_589)">
<path d="M30 60C46.5685 60 60 46.5685 60 30C60 13.4315 46.5685 0 30 0C13.4315 0 0 13.4315 0 30C0 46.5685 13.4315 60 30 60Z" fill="#EC691F"/>
<path d="M35.5 26.2083C35.5 33.9813 23.8333 33.9813 23.8333 26.2083H26.75C26.75 30.1021 32.5833 30.1021 32.5833 26.2083M41.3333 39.3333V43.7083H18V39.3333C18 35.4396 25.7729 33.5 29.6667 33.5C33.5604 33.5 41.3333 35.4396 41.3333 39.3333ZM38.5625 39.3333C38.5625 38.4 33.9979 36.2708 29.6667 36.2708C25.3354 36.2708 20.7708 38.4 20.7708 39.3333V40.9375H38.5625M30.3958 16C30.8042 16 31.125 16.3208 31.125 16.7292V21.1042H32.5833V17.4583C33.6154 17.936 34.4801 18.7128 35.0652 19.688C35.6503 20.6631 35.9288 21.7917 35.8646 22.9271C35.8646 22.9271 36.8854 23.1313 36.9583 24.75H22.375C22.375 23.1313 23.4688 22.9271 23.4688 22.9271C23.4045 21.7917 23.683 20.6631 24.2681 19.688C24.8532 18.7128 25.7179 17.936 26.75 17.4583V21.1042H28.2083V16.7292C28.2083 16.3208 28.5292 16 28.9375 16" fill="white"/>
</g>
<defs>
<clipPath id="clip0_17_589">
<rect width="60" height="60" fill="white"/>
</clipPath>
</defs>
</svg>
