<svg width="60" height="60" viewBox="0 0 60 60" fill="none" xmlns="http://www.w3.org/2000/svg">
<g clip-path="url(#clip0_17_797)">
<path d="M30 60C46.5685 60 60 46.5685 60 30C60 13.4315 46.5685 0 30 0C13.4315 0 0 13.4315 0 30C0 46.5685 13.4315 60 30 60Z" fill="#EC691F"/>
<path d="M26.0291 30L28.6761 32.6471L33.9702 27.353M41.4058 22.0377C37.221 22.2599 33.1189 20.8129 29.9997 18.0142C26.8805 20.8129 22.7784 22.2599 18.5935 22.0377C18.2567 23.3415 18.0868 24.6828 18.0879 26.0295C18.0879 33.4293 23.1491 39.6486 29.9997 41.4115C36.8502 39.6486 41.9114 33.4306 41.9114 26.0295C41.9114 24.6503 41.7354 23.3136 41.4058 22.0377Z" stroke="white" stroke-width="3" stroke-linecap="round" stroke-linejoin="round"/>
</g>
<defs>
<clipPath id="clip0_17_797">
<rect width="60" height="60" fill="white"/>
</clipPath>
</defs>
</svg>
